<svg width="100" height="100" viewBox="0 0 100 100" fill="none" xmlns="http://www.w3.org/2000/svg">
<rect width="100" height="100" fill="white"/>
<path d="M66.4453 0.292969C66.0938 0.449219 65.0977 1.07422 64.2383 1.67969C62.4609 2.92969 62.8711 2.89062 59.2773 2.07031C54.8438 1.05469 48.2227 0.664062 43.6523 1.17188C26.7383 3.02734 12.0508 13.5156 5.27344 28.5352C4.84375 29.4922 4.49219 30.5469 4.49219 30.8594C4.49219 31.9336 5.64453 32.5586 6.62109 32.0312C6.81641 31.9336 7.26563 31.1914 7.63672 30.3711L8.28125 28.9062H13.3594C16.2695 28.9062 18.7695 29.0039 19.1797 29.1016C20.2148 29.3945 21.4648 30.4102 22.1484 31.5039C22.5781 32.207 22.7344 32.7344 22.8125 33.75C22.9297 35.4297 22.4023 36.7578 21.1523 37.9102C19.5898 39.3555 19.6875 39.3359 11.8359 39.4141L4.82422 39.4922L4.96094 38.9844C5.33203 37.5 5.3125 36.8164 4.88281 36.2695C4.35547 35.6055 3.47656 35.5664 2.85156 36.1914C2.5 36.543 2.30469 37.168 1.99219 38.8867C0.214845 48.3594 1.44531 58.0859 5.46875 66.543C6.60156 68.9258 6.95313 69.3359 7.89063 69.3359C8.4375 69.3359 9.17969 68.5352 9.17969 67.9297C9.17969 67.7344 8.90625 67.0508 8.59375 66.4062L8.00781 65.2344H31.6797C45.8398 65.2344 56.1133 65.1562 57.207 65.0391C61.9922 64.5312 65.625 62.8711 69.3359 59.4922C72.2461 56.8359 74.6094 55.4688 77.7734 54.668C79.2383 54.2773 80.0391 54.2383 86.1914 54.1602L92.9883 54.0625L92.8711 54.8242C92.3633 57.7539 90.8203 62.6953 89.7266 64.8828L89.2578 65.7812L83.75 65.8594C78.3984 65.9375 78.1641 65.957 76.4648 66.4844C72.9492 67.5391 70.3516 69.082 67.2266 71.9531C63.9648 74.9414 60.4102 76.4453 56.0742 76.6797L54.1992 76.7773L53.6133 75.8594C52.207 73.6133 48.9844 73.3984 47.1094 75.4102C46.7578 75.7812 46.4258 76.2305 46.3672 76.4062C46.2695 76.7383 45.3711 76.7578 31.0742 76.7578H15.8789L15.1172 75.918C14.6875 75.4492 13.9258 74.5703 13.418 73.9648C12.6172 73.0078 12.3828 72.8516 11.8164 72.8516C11.0742 72.8516 10.3516 73.5742 10.3516 74.3359C10.3516 75.7422 17.1094 82.4414 21.6406 85.5273L22.7734 86.2891L23.5156 89.8633C23.9258 91.8359 24.375 93.6719 24.5117 93.9648C24.9609 94.8242 25.918 95.4688 27.3047 95.8789C35.5664 98.3008 41.6602 100 42.1094 100C43.2617 99.9805 44.2188 99.2969 46.9141 96.5234L49.5898 93.75H50.7227C52.3047 93.75 56.3672 93.2617 58.6328 92.793C62.7539 91.9336 66.8164 90.5273 70.625 88.6133C72.4805 87.6758 72.832 87.4219 73.0273 86.9141C73.1836 86.4258 73.1641 86.1719 72.9492 85.7422C72.4414 84.7461 71.7383 84.7266 70.0781 85.6445C68.3398 86.582 65.0195 87.9492 62.5 88.75C58.6328 89.9805 55.4102 90.5469 50.8398 90.8008L48.1836 90.9375L45.2148 94.043L42.2656 97.1484L34.8438 95.0195C30.7812 93.8672 27.3438 92.793 27.2266 92.6562C27.1094 92.5195 26.6797 90.7422 26.2695 88.7305C25.8594 86.7188 25.4102 84.8633 25.2734 84.6484C25.1367 84.4141 24.2969 83.75 23.3984 83.1445C22.5 82.5391 21.1328 81.5234 20.332 80.8594L18.8867 79.6875H32.5586H46.2305L46.6992 80.4102C47.7148 81.9727 49.5898 82.7148 51.3477 82.2266C52.207 81.9922 53.8086 80.7227 54.0039 80.0977C54.1016 79.8047 54.4531 79.7266 56.2305 79.6094C58.9648 79.4531 61.7188 78.75 64.0234 77.6367C66.2891 76.543 67.2266 75.918 69.4336 73.9258C71.4844 72.0703 72.5586 71.3086 74.4141 70.4102C77.0703 69.082 78.1055 68.8867 83.1836 68.8086L87.7539 68.7109L87.207 69.668C85.1172 73.2031 81.1133 77.7734 77.5391 80.6641C75.9375 81.9336 75.7813 82.1484 75.7813 82.9297C75.7813 83.6133 76.5039 84.375 77.1484 84.375C78.2031 84.375 84.5312 78.3789 87.0703 75C93.3008 66.6406 96.4648 57.168 96.4844 46.875V45L97.4609 44.043C98.6328 42.8906 99.0234 42.1094 99.0234 40.9766C99.0234 39.9023 97.0117 32.9883 96.3672 31.8945C95.8984 31.0742 94.6289 30.2734 93.7891 30.2734C93.2227 30.2734 93.1641 30.1953 91.543 26.9531C89.9414 23.7305 88.4961 21.5039 86.2695 18.6914C84.4727 16.4453 81.2891 13.2422 79.3164 11.7188L77.9492 10.6445L77.9297 8.69141C77.9102 4.88281 77.6758 4.57031 72.4219 1.95312C68.3008 -0.117188 67.7539 -0.273438 66.4453 0.292969ZM71.3867 4.74609L74.9023 6.54297L75 9.17969C75.0586 10.625 75.1758 11.9336 75.2539 12.0508C75.332 12.1875 76.2109 12.9492 77.207 13.75C78.2031 14.5508 79.8047 16.0156 80.8008 17.0312L82.5977 18.8477L82.1484 20.1172C80.1172 25.8398 75.625 30.0781 69.8242 31.6797C68.3398 32.0898 67.793 32.1094 58.8477 32.207C50.2539 32.3242 49.3945 32.3633 49.082 32.6562C48.5742 33.1641 48.6523 34.3359 49.1992 34.7852C49.6289 35.1367 50.1367 35.1562 58.3008 35.1562C65.1563 35.1562 67.3047 35.0977 68.6719 34.8633C75.3125 33.7109 80.8594 29.6289 83.8281 23.6719C84.375 22.5781 84.8437 21.6797 84.8828 21.6797C85.0195 21.6797 87.2461 25.0977 88.0664 26.5625C88.5352 27.3633 89.3359 28.9844 89.8633 30.1758C90.4102 31.3477 90.9766 32.4414 91.1523 32.5586C91.3281 32.6953 91.9922 32.9102 92.6172 33.0273C93.2227 33.1445 93.8281 33.3594 93.9258 33.4766C94.1406 33.7695 96.0937 40.4688 96.0937 40.9766C96.0937 41.1914 95.5469 41.8555 94.8242 42.5391C94.1211 43.1836 93.5547 43.8086 93.5547 43.9062C93.5547 44.043 90.8789 44.1406 86.1914 44.1797C78.9844 44.2773 78.7695 44.2773 76.9141 44.7852C73.457 45.7031 70.625 47.2656 67.9297 49.7461C65.1758 52.3047 63.3594 53.418 60.3516 54.4336L58.6914 54.9805L31.7188 55.0391L4.76563 55.0781L4.51172 53.2812C4.16016 50.5664 4.02344 47.2461 4.19922 44.668L4.33594 42.3828H10.7031C14.2188 42.3828 17.7344 42.2852 18.5352 42.1875C21.8945 41.7383 24.4336 39.668 25.4102 36.543C26.6406 32.5781 24.8047 28.5156 20.918 26.6797L19.6289 26.0742L14.8047 26.0156C12.1289 25.9766 9.96094 25.8984 9.96094 25.8398C9.96094 25.6055 12.5391 21.8555 13.6719 20.4492C14.3359 19.6094 15.6055 18.2031 16.4844 17.3047L18.0664 15.7031L21.25 15.4688C32.1484 14.6484 45.4297 10.5078 52.9883 5.54688L54.9609 4.25781L56.4258 4.49219C57.2461 4.60938 58.9063 4.98047 60.1367 5.29297C61.3672 5.60547 62.5977 5.85938 62.8906 5.85938C63.2227 5.85938 64.1211 5.35156 65.4492 4.39453C66.5625 3.59375 67.5781 2.94922 67.6758 2.94922C67.793 2.94922 69.4531 3.75 71.3867 4.74609ZM48.8477 4.62891C44.4336 7.12891 36.0938 10 29.1797 11.4062C26.4648 11.9531 22.4414 12.5586 22.3047 12.4219C22.1289 12.2266 25.9766 9.88281 28.75 8.51562C32.0117 6.875 36.0156 5.48828 39.5117 4.78516C42.6562 4.16016 44.4922 3.96484 47.5586 3.92578L50.0977 3.90625L48.8477 4.62891ZM93.5547 47.9297C93.5547 48.3789 93.4961 49.2969 93.4375 49.9609L93.3008 51.1328L86.1523 51.2305C78.3203 51.3281 77.832 51.3867 74.6289 52.5977C72.3242 53.457 69.9219 55 67.7148 56.9922C66.7383 57.8906 65.5859 58.8672 65.1367 59.1797C63.7109 60.1562 61.4844 61.1719 59.5898 61.6797L57.7148 62.207H32.2461H6.77734L6.25 60.6445C5.95703 59.7852 5.66406 58.8477 5.58594 58.5352L5.46875 58.0078H31.5234C60.1367 58.0078 59.0039 58.0469 62.3828 56.8164C64.707 55.9766 68.0469 53.8867 69.2383 52.5391C70.0586 51.6016 72.4414 49.8633 73.9258 49.082C77.3828 47.3047 78.7109 47.1094 86.9727 47.0898L93.5547 47.0703V47.9297ZM51.0547 77.2461C51.5234 77.7344 51.6211 78.3008 51.2891 78.8086C50.5859 79.8633 49.0234 79.4922 49.0234 78.2812C49.0234 77.9492 49.1602 77.5 49.3555 77.3047C49.7461 76.875 50.6445 76.8359 51.0547 77.2461Z" fill="#D83B09"/>
<path d="M64.9414 6.25C64.7461 6.46484 64.5898 6.93359 64.5898 7.26562C64.5898 8.84766 68.9844 11.3281 71.8164 11.3281C73.0078 11.3281 73.6328 10.8789 73.6328 10.0391C73.6328 9.00391 72.832 8.39844 71.4063 8.39844C70.625 8.39844 68.5156 7.40234 67.4609 6.52344C66.4844 5.74219 65.5078 5.625 64.9414 6.25Z" fill="#D83B09"/>
<path d="M51.875 10.1953C51.6992 10.4297 51.5625 10.8594 51.5625 11.1328C51.5625 11.9922 52.0703 12.5 52.9297 12.5C53.5156 12.5 53.7695 12.3828 54.082 11.9922C54.3164 11.6992 54.4922 11.3281 54.4922 11.1328C54.4922 10.9375 54.3164 10.5664 54.082 10.2734C53.5547 9.58984 52.3242 9.55078 51.875 10.1953Z" fill="#D83B09"/>
<path d="M49.5312 13.1055C48.4961 13.9062 49.1797 15.625 50.5273 15.625C51.1523 15.625 51.9531 14.8047 51.9531 14.1602C51.9531 13.5156 51.1523 12.6953 50.5273 12.6953C50.2734 12.6953 49.8242 12.8711 49.5312 13.1055Z" fill="#D83B09"/>
<path d="M30.2148 19.4141C27.0898 20.5273 25.6445 24.2773 27.168 27.3047C28.4375 29.8633 31.1328 30.9961 34.0039 30.1562C35.4297 29.7461 37.0898 28.0664 37.5977 26.5625C38.5352 23.7305 36.9531 20.3711 34.2188 19.4531C33.1445 19.082 31.2109 19.0625 30.2148 19.4141ZM33.6914 22.4609C35.4102 23.5156 35.332 26.0547 33.5547 27.1484C32.4219 27.832 31.1133 27.5781 30.0977 26.4844C29.4727 25.8203 29.3164 24.3359 29.7656 23.457C30.4492 22.1484 32.3828 21.6406 33.6914 22.4609Z" fill="#D83B09"/>
<path d="M68.5352 19.5313C65.9766 20.8789 65.4492 24.2188 67.5 26.2305C68.3594 27.0898 69.1211 27.4023 70.4102 27.4219C74.2578 27.4609 76.0742 22.793 73.2227 20.2148C72.793 19.8242 72.2266 19.4336 71.9531 19.3359C71.1328 19.0234 69.3164 19.1211 68.5352 19.5313ZM71.3281 22.4023C72.4219 23.3984 70.957 25.1563 69.7461 24.2773C69.1211 23.8086 69.0039 23.1836 69.4141 22.5391C69.8047 21.9727 70.7812 21.8945 71.3281 22.4023Z" fill="#D83B09"/>
<path d="M37.7539 33.7695C34.043 35.1367 31.7383 38.9844 32.3633 42.7148C32.832 45.4297 34.5898 47.7734 37.0313 48.9258C39.0234 49.8633 41.8359 49.8633 43.8867 48.9258C45.0977 48.3789 46.8555 46.7773 47.5391 45.625C48.9844 43.1641 48.9844 39.8438 47.5391 37.3828C46.8359 36.1914 45.0977 34.6289 43.8086 34.0234C42.2656 33.3203 39.2969 33.2031 37.7539 33.7695ZM42.5781 36.7383C43.6523 37.2266 44.6289 38.125 45.1758 39.1602C45.5078 39.7656 45.6055 40.2734 45.6055 41.5039C45.6055 42.7344 45.5078 43.2422 45.1758 43.8477C43.3984 47.168 38.8477 47.6953 36.4258 44.8633C35.7031 44.0234 35.1563 42.5586 35.1563 41.5039C35.1563 37.832 39.2188 35.2148 42.5781 36.7383Z" fill="#D83B09"/>
<path d="M90.7813 33.9062C90.0977 34.2578 89.9609 34.8437 90.1172 36.543C90.3125 38.8086 91.4258 41.1133 92.5977 41.7187C93.4766 42.168 94.707 41.5039 94.7266 40.5664C94.7266 40.3516 94.4141 39.6875 94.0234 39.0625C93.2813 37.8711 92.9883 36.8945 92.9688 35.7031C92.9688 34.668 92.6172 34.043 91.9336 33.7891C91.6211 33.6914 91.3477 33.5937 91.3281 33.5937C91.3086 33.6133 91.0742 33.7305 90.7813 33.9062Z" fill="#D83B09"/>
<path d="M53.6133 37.9883C53.3398 38.2422 53.125 38.6914 53.125 38.9648C53.125 39.2383 53.3398 39.6875 53.6133 39.9414C54.082 40.4297 54.1016 40.4297 57.8711 40.4297C61.5625 40.4297 61.6602 40.4297 62.0703 39.9805C62.6758 39.3359 62.6367 38.418 61.9922 37.9102C61.5039 37.5195 61.2109 37.5 57.7734 37.5C54.1211 37.5 54.082 37.5 53.6133 37.9883Z" fill="#D83B09"/>
<path d="M53.8867 42.0117C53.3984 42.1875 52.9297 42.8906 52.9297 43.4375C52.9297 43.5742 53.1055 43.9258 53.3398 44.2188C54.1406 45.2344 55.8594 44.668 55.8594 43.3789C55.8594 42.3242 54.8828 41.6602 53.8867 42.0117Z" fill="#D83B09"/>
<path d="M42.5977 82.7344C42.3633 83.0273 42.1875 83.3984 42.1875 83.5937C42.1875 83.7891 42.3633 84.1602 42.5977 84.4531C43.3984 85.4687 45.1172 84.9023 45.1172 83.5937C45.1172 82.2852 43.3984 81.7187 42.5977 82.7344Z" fill="#D83B09"/>
<path d="M29.1992 88.8281C28.5156 88.9648 28.125 89.4727 28.125 90.2344C28.125 91.3086 28.5352 91.5625 30.6641 91.7969C33.7695 92.1484 37.5 93.2422 40.0391 94.5312C41.0156 95.0391 41.8945 95.0195 42.3828 94.5312C42.8711 94.043 42.8906 93.0859 42.4023 92.5977C41.5625 91.7578 36.9336 89.9805 33.9844 89.3555C32.3242 89.0039 29.7852 88.7305 29.1992 88.8281Z" fill="#D83B09"/>
</svg>
