<svg width="98" height="100" viewBox="0 0 98 100" fill="none" xmlns="http://www.w3.org/2000/svg">
<path d="M65.2464 0.282936C64.8949 0.439186 63.8988 1.06419 63.0394 1.66965C61.2621 2.91965 61.6722 2.88059 58.0785 2.06028C53.6449 1.04465 47.0238 0.65403 42.4535 1.16184C25.5394 3.01731 10.8519 13.5056 4.07457 28.5251C3.64488 29.4822 3.29332 30.5368 3.29332 30.8493C3.29332 31.9236 4.44566 32.5486 5.42222 32.0212C5.61754 31.9236 6.06675 31.1814 6.43785 30.3611L7.08238 28.8962H12.1605C15.0707 28.8962 17.5707 28.9939 17.9808 29.0915C19.016 29.3845 20.266 30.4001 20.9496 31.4939C21.3793 32.197 21.5355 32.7243 21.6136 33.74C21.7308 35.4197 21.2035 36.7478 19.9535 37.9001C18.391 39.3454 18.4886 39.3259 10.6371 39.404L3.62535 39.4822L3.76207 38.9743C4.13316 37.49 4.11363 36.8064 3.68394 36.2595C3.1566 35.5954 2.27769 35.5564 1.65269 36.1814C1.30113 36.5329 1.10582 37.1579 0.793317 38.8767C-0.984027 48.3493 0.246442 58.0759 4.26988 66.5329C5.40269 68.9157 5.75425 69.3259 6.69175 69.3259C7.23863 69.3259 7.98082 68.5251 7.98082 67.9197C7.98082 67.7243 7.70738 67.0407 7.39488 66.3962L6.80894 65.2243H30.4808C44.641 65.2243 54.9144 65.1462 56.0082 65.029C60.7933 64.5212 64.4261 62.8611 68.1371 59.4822C71.0472 56.8259 73.4105 55.4587 76.5746 54.6579C78.0394 54.2673 78.8402 54.2282 84.9925 54.1501L91.7894 54.0525L91.6722 54.8142C91.1644 57.7439 89.6214 62.6853 88.5277 64.8728L88.0589 65.7712L82.5511 65.8493C77.1996 65.9275 76.9652 65.947 75.266 66.4743C71.7503 67.529 69.1527 69.072 66.0277 71.9431C62.766 74.9314 59.2113 76.4353 54.8753 76.6697L53.0003 76.7673L52.4144 75.8493C51.0082 73.6032 47.7855 73.3884 45.9105 75.4001C45.5589 75.7712 45.2269 76.2204 45.1683 76.3962C45.0707 76.7282 44.1722 76.7478 29.8753 76.7478H14.68L13.9183 75.9079C13.4886 75.4392 12.7269 74.5603 12.2191 73.9548C11.4183 72.9978 11.1839 72.8415 10.6175 72.8415C9.87535 72.8415 9.15269 73.5642 9.15269 74.3259C9.15269 75.7322 15.9105 82.4314 20.4418 85.5173L21.5746 86.279L22.3168 89.8532C22.7269 91.8259 23.1761 93.6618 23.3128 93.9548C23.7621 94.8142 24.7191 95.4587 26.1058 95.8689C34.3675 98.2907 40.4613 99.99 40.9105 99.99C42.0628 99.9704 43.0199 99.2868 45.7152 96.5134L48.391 93.74H49.5238C51.1058 93.74 55.1683 93.2517 57.4339 92.7829C61.555 91.9236 65.6175 90.5173 69.4261 88.6032C71.2816 87.6657 71.6332 87.4118 71.8285 86.904C71.9847 86.4157 71.9652 86.1618 71.7503 85.7322C71.2425 84.7361 70.5394 84.7165 68.8793 85.6345C67.141 86.572 63.8207 87.9392 61.3011 88.74C57.4339 89.9704 54.2113 90.5368 49.641 90.7907L46.9847 90.9275L44.016 94.0329L41.0668 97.1384L33.6449 95.0095C29.5824 93.8572 26.1449 92.7829 26.0277 92.6462C25.9105 92.5095 25.4808 90.7322 25.0707 88.7204C24.6605 86.7087 24.2113 84.8532 24.0746 84.6384C23.9378 84.404 23.098 83.74 22.1996 83.1345C21.3011 82.529 19.9339 81.5134 19.1332 80.8493L17.6878 79.6775H31.3597H45.0316L45.5003 80.4001C46.516 81.9626 48.391 82.7048 50.1488 82.2165C51.0082 81.9822 52.6097 80.7126 52.805 80.0876C52.9027 79.7947 53.2543 79.7165 55.0316 79.5993C57.766 79.4431 60.5199 78.74 62.8246 77.6267C65.0902 76.5329 66.0277 75.9079 68.2347 73.9157C70.2855 72.0603 71.3597 71.2986 73.2152 70.4001C75.8714 69.072 76.9066 68.8767 81.9847 68.7986L86.555 68.7009L86.0082 69.6579C83.9183 73.1931 79.9144 77.7634 76.3402 80.654C74.7386 81.9236 74.5824 82.1384 74.5824 82.9197C74.5824 83.6032 75.305 84.365 75.9496 84.365C77.0043 84.365 83.3324 78.3689 85.8714 74.99C92.1019 66.6306 95.266 57.1579 95.2855 46.865V44.99L96.2621 44.0329C97.4339 42.8806 97.8246 42.0993 97.8246 40.9665C97.8246 39.8923 95.8128 32.9782 95.1683 31.8845C94.6996 31.0642 93.43 30.2634 92.5902 30.2634C92.0238 30.2634 91.9652 30.1853 90.3441 26.9431C88.7425 23.7204 87.2972 21.4939 85.0707 18.6814C83.2738 16.4353 80.0902 13.2322 78.1175 11.7087L76.7503 10.6345L76.7308 8.68137C76.7113 4.87278 76.4769 4.56028 71.223 1.94309C67.1019 -0.12722 66.555 -0.28347 65.2464 0.282936ZM70.1878 4.73606L73.7035 6.53294L73.8011 9.16965C73.8597 10.615 73.9769 11.9236 74.055 12.0407C74.1332 12.1775 75.0121 12.9392 76.0082 13.74C77.0043 14.5407 78.6058 16.0056 79.6019 17.0212L81.3988 18.8376L80.9496 20.1072C78.9183 25.8298 74.4261 30.0681 68.6253 31.6697C67.141 32.0798 66.5941 32.0993 57.6488 32.197C49.055 32.3142 48.1957 32.3532 47.8832 32.6462C47.3753 33.154 47.4535 34.3259 48.0003 34.7751C48.43 35.1267 48.9378 35.1462 57.1019 35.1462C63.9574 35.1462 66.1058 35.0876 67.473 34.8532C74.1136 33.7009 79.6605 29.6189 82.6293 23.6618C83.1761 22.5681 83.6449 21.6697 83.6839 21.6697C83.8207 21.6697 86.0472 25.0876 86.8675 26.5525C87.3363 27.3532 88.1371 28.9743 88.6644 30.1657C89.2113 31.3376 89.7777 32.4314 89.9535 32.5486C90.1293 32.6853 90.7933 32.9001 91.4183 33.0173C92.0238 33.1345 92.6293 33.3493 92.7269 33.4665C92.9418 33.7595 94.8949 40.4587 94.8949 40.9665C94.8949 41.1814 94.348 41.8454 93.6253 42.529C92.9222 43.1736 92.3558 43.7986 92.3558 43.8962C92.3558 44.0329 89.68 44.1306 84.9925 44.1697C77.7855 44.2673 77.5707 44.2673 75.7152 44.7751C72.2582 45.6931 69.4261 47.2556 66.7308 49.7361C63.9769 52.2947 62.1605 53.4079 59.1527 54.4236L57.4925 54.9704L30.5199 55.029L3.56675 55.0681L3.31285 53.2712C2.96129 50.5564 2.82457 47.2361 3.00035 44.6579L3.13707 42.3728H9.50425C13.0199 42.3728 16.5355 42.2751 17.3363 42.1775C20.6957 41.7282 23.2347 39.6579 24.2113 36.5329C25.4418 32.5681 23.6058 28.5056 19.7191 26.6697L18.43 26.0642L13.6058 26.0056C10.93 25.9665 8.76207 25.8884 8.76207 25.8298C8.76207 25.5954 11.3402 21.8454 12.473 20.4392C13.1371 19.5993 14.4066 18.1931 15.2855 17.2947L16.8675 15.6931L20.0511 15.4587C30.9496 14.6384 44.2308 10.4978 51.7894 5.53684L53.7621 4.24778L55.2269 4.48215C56.0472 4.59934 57.7074 4.97044 58.9378 5.28294C60.1683 5.59544 61.3988 5.84934 61.6918 5.84934C62.0238 5.84934 62.9222 5.34153 64.2503 4.3845C65.3636 3.58372 66.3793 2.93919 66.4769 2.93919C66.5941 2.93919 68.2543 3.73997 70.1878 4.73606ZM47.6488 4.61887C43.2347 7.11887 34.8949 9.98997 27.9808 11.3962C25.266 11.9431 21.2425 12.5486 21.1058 12.4118C20.93 12.2165 24.7777 9.87278 27.5511 8.50559C30.8128 6.86497 34.8168 5.47825 38.3128 4.77512C41.4574 4.15012 43.2933 3.95481 46.3597 3.91575L48.8988 3.89622L47.6488 4.61887ZM92.3558 47.9197C92.3558 48.3689 92.2972 49.2868 92.2386 49.9509L92.1019 51.1228L84.9535 51.2204C77.1214 51.3181 76.6332 51.3767 73.43 52.5876C71.1253 53.447 68.723 54.99 66.516 56.9822C65.5394 57.8806 64.3871 58.8572 63.9378 59.1697C62.5121 60.1462 60.2855 61.1618 58.391 61.6697L56.516 62.197H31.0472H5.57847L5.05113 60.6345C4.75816 59.7751 4.46519 58.8376 4.38707 58.5251L4.26988 57.9978H30.3246C58.9378 57.9978 57.805 58.0368 61.1839 56.8064C63.5082 55.9665 66.848 53.8767 68.0394 52.529C68.8597 51.5915 71.2425 49.8532 72.7269 49.072C76.1839 47.2947 77.5121 47.0993 85.7738 47.0798L92.3558 47.0603V47.9197ZM49.8558 77.2361C50.3246 77.7243 50.4222 78.2907 50.0902 78.7986C49.3871 79.8532 47.8246 79.4822 47.8246 78.2712C47.8246 77.9392 47.9613 77.49 48.1566 77.2947C48.5472 76.865 49.4457 76.8259 49.8558 77.2361Z" fill="#D83B09"/>
<path d="M63.7426 6.23997C63.5472 6.45481 63.391 6.92356 63.391 7.25559C63.391 8.83762 67.7855 11.3181 70.6176 11.3181C71.809 11.3181 72.434 10.8689 72.434 10.029C72.434 8.99387 71.6332 8.3884 70.2074 8.3884C69.4261 8.3884 67.3168 7.39231 66.2621 6.5134C65.2855 5.73215 64.309 5.61497 63.7426 6.23997Z" fill="#D83B09"/>
<path d="M50.6761 10.1853C50.5004 10.4197 50.3636 10.8493 50.3636 11.1228C50.3636 11.9822 50.8715 12.49 51.7308 12.49C52.3168 12.49 52.5707 12.3728 52.8832 11.9822C53.1176 11.6892 53.2933 11.3181 53.2933 11.1228C53.2933 10.9275 53.1176 10.5564 52.8832 10.2634C52.3558 9.57981 51.1254 9.54075 50.6761 10.1853Z" fill="#D83B09"/>
<path d="M48.3324 13.0954C47.2972 13.8962 47.9808 15.615 49.3285 15.615C49.9535 15.615 50.7543 14.7947 50.7543 14.1501C50.7543 13.5056 49.9535 12.6853 49.3285 12.6853C49.0746 12.6853 48.6253 12.8611 48.3324 13.0954Z" fill="#D83B09"/>
<path d="M29.016 19.404C25.891 20.5173 24.4457 24.2673 25.9692 27.2947C27.2387 29.8532 29.934 30.9861 32.8051 30.1462C34.2309 29.7361 35.891 28.0564 36.3988 26.5525C37.3363 23.7204 35.7543 20.3611 33.0199 19.4431C31.9457 19.072 30.0121 19.0525 29.016 19.404ZM32.4926 22.4509C34.2113 23.5056 34.1332 26.0447 32.3559 27.1384C31.2231 27.822 29.9145 27.5681 28.8988 26.4743C28.2738 25.8103 28.1176 24.3259 28.5668 23.447C29.2504 22.1384 31.184 21.6306 32.4926 22.4509Z" fill="#D83B09"/>
<path d="M67.3363 19.5212C64.7777 20.8689 64.2504 24.2087 66.3012 26.2204C67.1605 27.0798 67.9223 27.3923 69.2113 27.4118C73.059 27.4509 74.8754 22.7829 72.0238 20.2048C71.5941 19.8142 71.0277 19.4236 70.7543 19.3259C69.934 19.0134 68.1176 19.1111 67.3363 19.5212ZM70.1293 22.3923C71.223 23.3884 69.7582 25.1462 68.5473 24.2673C67.9223 23.7986 67.8051 23.1736 68.2152 22.529C68.6058 21.9626 69.5824 21.8845 70.1293 22.3923Z" fill="#D83B09"/>
<path d="M36.5551 33.7595C32.8441 35.1267 30.5394 38.9743 31.1644 42.7048C31.6332 45.4197 33.391 47.7634 35.8324 48.9157C37.8246 49.8532 40.6371 49.8532 42.6879 48.9157C43.8988 48.3689 45.6566 46.7673 46.3402 45.615C47.7855 43.154 47.7855 39.8337 46.3402 37.3728C45.6371 36.1814 43.8988 34.6189 42.6097 34.0134C41.0668 33.3103 38.098 33.1931 36.5551 33.7595ZM41.3793 36.7282C42.4535 37.2165 43.4301 38.115 43.9769 39.1501C44.309 39.7556 44.4066 40.2634 44.4066 41.4939C44.4066 42.7243 44.309 43.2322 43.9769 43.8376C42.1996 47.1579 37.6488 47.6853 35.2269 44.8532C34.5043 44.0134 33.9574 42.5486 33.9574 41.4939C33.9574 37.822 38.0199 35.2048 41.3793 36.7282Z" fill="#D83B09"/>
<path d="M89.5824 33.8962C88.8988 34.2478 88.7621 34.8337 88.9184 36.5329C89.1137 38.7986 90.2269 41.1032 91.3988 41.7087C92.2777 42.1579 93.5082 41.4939 93.5277 40.5564C93.5277 40.3415 93.2152 39.6775 92.8246 39.0525C92.0824 37.8611 91.7894 36.8845 91.7699 35.6931C91.7699 34.6579 91.4184 34.0329 90.7348 33.779C90.4223 33.6814 90.1488 33.5837 90.1293 33.5837C90.1098 33.6033 89.8754 33.7204 89.5824 33.8962Z" fill="#D83B09"/>
<path d="M52.4144 37.9782C52.141 38.2322 51.9261 38.6814 51.9261 38.9548C51.9261 39.2282 52.141 39.6775 52.4144 39.9314C52.8832 40.4197 52.9027 40.4197 56.6722 40.4197C60.3636 40.4197 60.4613 40.4197 60.8715 39.9704C61.4769 39.3259 61.4379 38.4079 60.7933 37.9001C60.3051 37.5095 60.0121 37.49 56.5746 37.49C52.9222 37.49 52.8832 37.49 52.4144 37.9782Z" fill="#D83B09"/>
<path d="M52.6879 42.0017C52.1996 42.1775 51.7308 42.8806 51.7308 43.4275C51.7308 43.5642 51.9066 43.9157 52.141 44.2087C52.9418 45.2243 54.6605 44.6579 54.6605 43.3689C54.6605 42.3142 53.684 41.6501 52.6879 42.0017Z" fill="#D83B09"/>
<path d="M41.3988 82.7243C41.1644 83.0173 40.9886 83.3884 40.9886 83.5837C40.9886 83.779 41.1644 84.1501 41.3988 84.4431C42.1996 85.4587 43.9183 84.8923 43.9183 83.5837C43.9183 82.2751 42.1996 81.7087 41.3988 82.7243Z" fill="#D83B09"/>
<path d="M28.0004 88.8181C27.3168 88.9548 26.9261 89.4626 26.9261 90.2243C26.9261 91.2986 27.3363 91.5525 29.4652 91.7868C32.5707 92.1384 36.3011 93.2322 38.8402 94.5212C39.8168 95.029 40.6957 95.0095 41.184 94.5212C41.6722 94.0329 41.6918 93.0759 41.2035 92.5876C40.3636 91.7478 35.7347 89.9704 32.7855 89.3454C31.1254 88.9939 28.5863 88.7204 28.0004 88.8181Z" fill="#D83B09"/>
</svg>
