<svg width="285" height="50" viewBox="0 0 285 50" fill="none" xmlns="http://www.w3.org/2000/svg">
<rect width="285" height="50" rx="5" fill="#FFC299"/>
<g clip-path="url(#clip0_307_52)">
<path d="M31.679 5.11318C31.5352 5.17569 31.1279 5.42572 30.7765 5.66793C30.0498 6.16798 30.2175 6.15235 28.748 5.82419C26.9351 5.4179 24.2278 5.26164 22.359 5.46478C15.4429 6.20704 9.43729 10.4028 6.66607 16.4112C6.49037 16.794 6.34662 17.216 6.34662 17.341C6.34662 17.7707 6.81781 18.0207 7.21712 17.8098C7.29698 17.7707 7.48067 17.4738 7.63241 17.1456L7.89595 16.5596H9.97237C11.1623 16.5596 12.1846 16.5987 12.3523 16.6378C12.7755 16.755 13.2867 17.1613 13.5662 17.5988C13.7419 17.8801 13.8058 18.091 13.8377 18.4973C13.8856 19.1693 13.67 19.7006 13.1589 20.1616C12.52 20.7398 12.5599 20.7319 9.34945 20.7632L6.48239 20.7944L6.53829 20.5913C6.69003 19.9975 6.68204 19.724 6.50635 19.5053C6.29072 19.2396 5.93134 19.224 5.67578 19.474C5.53203 19.6146 5.45216 19.8647 5.32438 20.5522C4.59764 24.3417 5.10077 28.2327 6.74593 31.6158C7.20914 32.5691 7.35289 32.7331 7.73623 32.7331C7.95984 32.7331 8.26332 32.4128 8.26332 32.1706C8.26332 32.0925 8.15151 31.819 8.02373 31.5612L7.78414 31.0924H17.4635C23.2535 31.0924 27.4542 31.0611 27.9015 31.0142C29.8581 30.8111 31.3435 30.1469 32.8609 28.7952C34.0509 27.7326 35.0172 27.1857 36.311 26.8654C36.9099 26.7091 37.2374 26.6935 39.753 26.6622L42.5323 26.6232L42.4843 26.9279C42.2767 28.0999 41.6458 30.0766 41.1986 30.9517L41.0069 31.3111L38.7548 31.3424C36.5665 31.3736 36.4707 31.3814 35.7759 31.5924C34.3384 32.0143 33.2762 32.6316 31.9984 33.7801C30.6647 34.9756 29.2112 35.5772 27.4383 35.6709L26.6716 35.71L26.432 35.3428C25.857 34.4443 24.5393 34.3583 23.7726 35.1631C23.6288 35.3115 23.4931 35.4912 23.4691 35.5616C23.4292 35.6944 23.0618 35.7022 17.2159 35.7022H11.0026L10.6911 35.3662C10.5154 35.1787 10.204 34.8271 9.99633 34.5849C9.6689 34.202 9.57306 34.1395 9.34146 34.1395C9.03798 34.1395 8.74249 34.4286 8.74249 34.7333C8.74249 35.2959 11.5057 37.9759 13.3585 39.2104L13.8217 39.5151L14.1252 40.9449C14.2929 41.734 14.4766 42.4685 14.5325 42.5857C14.7162 42.9295 15.1075 43.1873 15.6745 43.3514C19.0527 44.3202 21.5444 45 21.7281 45C22.1993 44.9922 22.5906 44.7187 23.6927 43.6092L24.7868 42.4997H25.25C25.8969 42.4997 27.5581 42.3044 28.4845 42.1169C30.1696 41.7731 31.8307 41.2106 33.388 40.4449C34.1467 40.0698 34.2905 39.9682 34.3703 39.7651C34.4342 39.5698 34.4262 39.4682 34.3384 39.2963C34.1307 38.8978 33.8432 38.89 33.1644 39.2572C32.4536 39.6323 31.096 40.1792 30.0657 40.4995C28.4845 40.9918 27.1667 41.2184 25.298 41.3199L24.2118 41.3746L22.9979 42.6169L21.792 43.8593L18.7572 43.0076C17.0961 42.5466 15.6905 42.1169 15.6426 42.0622C15.5947 42.0075 15.419 41.2965 15.2513 40.4917C15.0836 39.687 14.8999 38.9447 14.844 38.8588C14.7881 38.765 14.4447 38.4993 14.0773 38.2571C13.7099 38.0149 13.1509 37.6086 12.8235 37.343L12.2325 36.8742H17.8228H23.4132L23.6049 37.1633C24.0202 37.7883 24.7868 38.0852 25.5056 37.8899C25.857 37.7962 26.5119 37.2883 26.5917 37.0383C26.6317 36.9211 26.7754 36.8898 27.5022 36.8429C28.6202 36.7804 29.7463 36.4991 30.6887 36.0538C31.6151 35.6162 31.9984 35.3662 32.9009 34.5693C33.7394 33.827 34.1787 33.5223 34.9373 33.1629C36.0235 32.6316 36.4467 32.5534 38.5232 32.5222L40.3919 32.4831L40.1683 32.866C39.3138 34.2802 37.6766 36.1085 36.2151 37.2648C35.5603 37.7727 35.4964 37.8587 35.4964 38.1712C35.4964 38.4447 35.7919 38.7494 36.0554 38.7494C36.4867 38.7494 39.0742 36.3507 40.1124 34.999C42.66 31.6549 43.9538 27.8655 43.9618 23.7479V22.9978L44.3611 22.6149C44.8403 22.154 45 21.8414 45 21.3883C45 20.9585 44.1774 18.1926 43.9139 17.7551C43.7222 17.4269 43.2031 17.1066 42.8597 17.1066C42.6281 17.1066 42.6041 17.0753 41.9413 15.7783C41.2864 14.4891 40.6954 13.5984 39.785 12.4733C39.0503 11.5748 37.7485 10.2934 36.9419 9.68396L36.3829 9.25422L36.3749 8.4729C36.3669 6.94931 36.271 6.82429 34.1227 5.77731C32.4377 4.94911 32.214 4.8866 31.679 5.11318ZM33.6995 6.89461L35.137 7.61344L35.1769 8.66823C35.2009 9.24641 35.2488 9.7699 35.2808 9.81678C35.3127 9.87147 35.6721 10.1762 36.0794 10.4965C36.4867 10.8169 37.1415 11.4029 37.5488 11.8092L38.2836 12.5358L38.0999 13.0437C37.2693 15.333 35.4325 17.0284 33.0606 17.6691C32.4536 17.8332 32.23 17.841 28.5723 17.8801C25.0584 17.927 24.707 17.9426 24.5792 18.0598C24.3716 18.2629 24.4035 18.7317 24.6271 18.9114C24.8028 19.0521 25.0105 19.0599 28.3487 19.0599C31.1519 19.0599 32.0304 19.0365 32.5894 18.9427C35.3047 18.4817 37.5728 16.8487 38.7867 14.4657C39.0103 14.0281 39.202 13.6687 39.218 13.6687C39.2739 13.6687 40.1843 15.0361 40.5197 15.6221C40.7114 15.9424 41.0388 16.5909 41.2545 17.0675C41.4781 17.5363 41.7097 17.9739 41.7815 18.0207C41.8534 18.0754 42.125 18.1614 42.3805 18.2082C42.6281 18.2551 42.8757 18.3411 42.9156 18.388C43.0034 18.5052 43.8021 21.1851 43.8021 21.3883C43.8021 21.4742 43.5785 21.7399 43.283 22.0133C42.9955 22.2712 42.7639 22.5212 42.7639 22.5602C42.7639 22.6149 41.6697 22.654 39.753 22.6696C36.8061 22.7087 36.7183 22.7087 35.9596 22.9118C34.546 23.2791 33.388 23.9041 32.2859 24.8964C31.1599 25.92 30.4171 26.3653 29.1873 26.7716L28.5084 26.9904L17.4794 27.0138L6.45843 27.0294L6.35461 26.3106C6.21086 25.2246 6.15495 23.8963 6.22683 22.865L6.28273 21.9508H8.88624C10.3238 21.9508 11.7613 21.9117 12.0887 21.8727C13.4624 21.693 14.5006 20.8648 14.8999 19.6146C15.403 18.0285 14.6523 16.4034 13.0631 15.6689L12.536 15.4267L10.5634 15.4033C9.46924 15.3877 8.58277 15.3564 8.58277 15.333C8.58277 15.2392 9.63695 13.739 10.1002 13.1765C10.3717 12.8405 10.8908 12.278 11.2502 11.9186L11.8971 11.2779L13.1988 11.1841C17.6551 10.856 23.0858 9.19953 26.1764 7.21496L26.9831 6.69928L27.582 6.79304C27.9174 6.83992 28.5963 6.98837 29.0994 7.11339C29.6025 7.2384 30.1057 7.33997 30.2255 7.33997C30.3612 7.33997 30.7286 7.13682 31.2717 6.75397C31.7269 6.43363 32.1422 6.17579 32.1821 6.17579C32.23 6.17579 32.9088 6.49614 33.6995 6.89461ZM24.4834 6.84773C22.6785 7.84783 19.2684 8.99639 16.4412 9.55894C15.3311 9.77771 13.686 10.0199 13.6301 9.96523C13.5582 9.8871 15.1315 8.94951 16.2655 8.40258C17.5992 7.74626 19.2364 7.19152 20.6659 6.91024C21.9517 6.66021 22.7024 6.58208 23.9563 6.56646L24.9945 6.55864L24.4834 6.84773ZM42.7639 24.1698C42.7639 24.3495 42.7399 24.7167 42.7159 24.9824L42.66 25.4512L39.7371 25.4902C36.5346 25.5293 36.3349 25.5527 35.0252 26.0372C34.0828 26.3809 33.1005 26.9982 32.1981 27.7951C31.7988 28.1546 31.3276 28.5452 31.1439 28.6702C30.5609 29.0609 29.6505 29.4672 28.8758 29.6703L28.1091 29.8813H17.6951H7.28101L7.06538 29.2562C6.94559 28.9124 6.8258 28.5374 6.79385 28.4124L6.74593 28.2014H17.3996C29.0994 28.2014 28.6362 28.2171 30.0178 27.7248C30.9682 27.3889 32.3338 26.5528 32.821 26.0137C33.1564 25.6387 34.1307 24.9433 34.7377 24.6308C36.1513 23.9198 36.6943 23.8416 40.0725 23.8338L42.7639 23.826V24.1698ZM25.3858 35.8975C25.5775 36.0929 25.6174 36.3194 25.4816 36.5226C25.1941 36.9445 24.5552 36.7961 24.5552 36.3116C24.5552 36.1788 24.6111 35.9991 24.691 35.921C24.8507 35.7491 25.2181 35.7334 25.3858 35.8975Z" fill="white"/>
<path d="M31.064 7.49621C30.9841 7.58215 30.9203 7.76966 30.9203 7.90249C30.9203 8.53536 32.7172 9.52765 33.8752 9.52765C34.3623 9.52765 34.6179 9.34795 34.6179 9.01198C34.6179 8.59788 34.2904 8.35567 33.7075 8.35567C33.388 8.35567 32.5255 7.95719 32.0942 7.60559C31.6949 7.29306 31.2956 7.24618 31.064 7.49621Z" fill="white"/>
<path d="M25.7213 9.07444C25.6494 9.1682 25.5935 9.34009 25.5935 9.44948C25.5935 9.79326 25.8011 9.99641 26.1525 9.99641C26.3921 9.99641 26.4959 9.94953 26.6237 9.79326C26.7195 9.67606 26.7914 9.52761 26.7914 9.44948C26.7914 9.37135 26.7195 9.22289 26.6237 9.10569C26.4081 8.83223 25.9049 8.8166 25.7213 9.07444Z" fill="white"/>
<path d="M24.7629 10.2387C24.3396 10.559 24.6191 11.2466 25.1702 11.2466C25.4257 11.2466 25.7532 10.9184 25.7532 10.6606C25.7532 10.4027 25.4257 10.0746 25.1702 10.0746C25.0664 10.0746 24.8827 10.1449 24.7629 10.2387Z" fill="white"/>
<path d="M16.8645 12.7623C15.5867 13.2076 14.9957 14.7078 15.6186 15.9188C16.1377 16.9424 17.2398 17.3956 18.4138 17.0596C18.9968 16.8955 19.6756 16.2236 19.8833 15.6219C20.2666 14.489 19.6197 13.1451 18.5017 12.7779C18.0624 12.6295 17.2718 12.6216 16.8645 12.7623ZM18.286 13.9812C18.9888 14.4031 18.9569 15.4188 18.2301 15.8563C17.7669 16.1298 17.2318 16.0282 16.8166 15.5907C16.561 15.325 16.4971 14.7312 16.6808 14.3796C16.9603 13.8561 17.751 13.653 18.286 13.9812Z" fill="white"/>
<path d="M32.5335 12.8093C31.4873 13.3484 31.2717 14.6845 32.1103 15.4892C32.4617 15.833 32.7731 15.958 33.3002 15.9658C34.8735 15.9815 35.6162 14.1141 34.4502 13.0828C34.2745 12.9265 34.0429 12.7702 33.9311 12.7312C33.5957 12.6062 32.853 12.6452 32.5335 12.8093ZM33.6756 13.9579C34.1228 14.3563 33.5238 15.0595 33.0287 14.7079C32.7731 14.5204 32.7252 14.2704 32.8929 14.0125C33.0526 13.786 33.4519 13.7547 33.6756 13.9579Z" fill="white"/>
<path d="M19.9472 18.5051C18.4298 19.052 17.4874 20.5912 17.743 22.0836C17.9347 23.1696 18.6534 24.1072 19.6517 24.5682C20.4663 24.9432 21.6163 24.9432 22.4549 24.5682C22.95 24.3494 23.6688 23.7087 23.9483 23.2478C24.5393 22.2633 24.5393 20.935 23.9483 19.9506C23.6608 19.4739 22.95 18.8489 22.4229 18.6067C21.792 18.3254 20.5781 18.2785 19.9472 18.5051ZM21.9198 19.6927C22.359 19.8881 22.7584 20.2475 22.982 20.6616C23.1177 20.9038 23.1577 21.1069 23.1577 21.5992C23.1577 22.0914 23.1177 22.2945 22.982 22.5368C22.2552 23.865 20.3944 24.076 19.4041 22.943C19.1086 22.6071 18.885 22.0211 18.885 21.5992C18.885 20.1303 20.5462 19.0833 21.9198 19.6927Z" fill="white"/>
<path d="M41.6298 18.5598C41.3503 18.7005 41.2944 18.9349 41.3583 19.6146C41.4382 20.521 41.8934 21.4429 42.3726 21.6852C42.7319 21.8649 43.2351 21.5992 43.2431 21.2242C43.2431 21.1382 43.1153 20.8726 42.9556 20.6226C42.6521 20.1459 42.5323 19.7553 42.5243 19.2787C42.5243 18.8646 42.3805 18.6145 42.101 18.513C41.9732 18.4739 41.8614 18.4348 41.8535 18.4348C41.8455 18.4426 41.7496 18.4895 41.6298 18.5598Z" fill="white"/>
<path d="M26.432 20.1929C26.3202 20.2945 26.2323 20.4742 26.2323 20.5836C26.2323 20.6929 26.3202 20.8727 26.432 20.9742C26.6237 21.1696 26.6316 21.1696 28.173 21.1696C29.6824 21.1696 29.7223 21.1696 29.89 20.9899C30.1376 20.732 30.1216 20.3648 29.8581 20.1616C29.6584 20.0054 29.5386 19.9976 28.1331 19.9976C26.6396 19.9976 26.6237 19.9976 26.432 20.1929Z" fill="white"/>
<path d="M26.5438 21.8023C26.3442 21.8727 26.1525 22.1539 26.1525 22.3727C26.1525 22.4274 26.2244 22.568 26.3202 22.6852C26.6476 23.0915 27.3504 22.8649 27.3504 22.3493C27.3504 21.9273 26.9511 21.6617 26.5438 21.8023Z" fill="white"/>
<path d="M21.9278 38.0931C21.8319 38.2103 21.76 38.3588 21.76 38.4369C21.76 38.515 21.8319 38.6635 21.9278 38.7807C22.2552 39.187 22.958 38.9604 22.958 38.4369C22.958 37.9134 22.2552 37.6868 21.9278 38.0931Z" fill="white"/>
<path d="M16.4492 40.5309C16.1697 40.5856 16.01 40.7887 16.01 41.0934C16.01 41.5232 16.1777 41.6247 17.0482 41.7185C18.318 41.8591 19.8434 42.2967 20.8816 42.8123C21.2809 43.0155 21.6403 43.0077 21.8399 42.8123C22.0396 42.617 22.0476 42.2342 21.8479 42.0388C21.5045 41.7029 19.6118 40.9919 18.4058 40.7418C17.727 40.6012 16.6888 40.4918 16.4492 40.5309Z" fill="white"/>
<path d="M59.78 37V18.64H50.6V15.4H72.2V18.64H63.02V37H59.78ZM73.7237 37V23.5C73.7237 22.78 73.9037 22.13 74.2637 21.55C74.6237 20.97 75.0937 20.5 75.6737 20.14C76.2737 19.78 76.9237 19.6 77.6237 19.6H87.3437V22.84H77.7137C77.5137 22.84 77.3337 22.92 77.1737 23.08C77.0337 23.22 76.9637 23.39 76.9637 23.59V37H73.7237ZM92.7268 37C92.0068 37 91.3468 36.82 90.7468 36.46C90.1668 36.1 89.6968 35.63 89.3368 35.05C88.9968 34.47 88.8268 33.82 88.8268 33.1V26.68H103.257V23.59C103.257 23.39 103.187 23.22 103.047 23.08C102.907 22.92 102.737 22.84 102.537 22.84H88.8268V19.6H102.627C103.347 19.6 103.997 19.78 104.577 20.14C105.177 20.48 105.647 20.95 105.987 21.55C106.347 22.15 106.527 22.8 106.527 23.5V37H92.7268ZM92.8168 33.76H103.257V29.71H92.0668V33.01C92.0668 33.21 92.1368 33.39 92.2768 33.55C92.4368 33.69 92.6168 33.76 92.8168 33.76ZM116.936 37L107.336 19.6H111.086L118.556 33.34L126.026 19.6H129.776L120.176 37H116.936ZM134.329 37C133.609 37 132.959 36.82 132.379 36.46C131.799 36.1 131.329 35.63 130.969 35.05C130.609 34.47 130.429 33.82 130.429 33.1V23.5C130.429 22.78 130.609 22.13 130.969 21.55C131.329 20.97 131.799 20.5 132.379 20.14C132.959 19.78 133.609 19.6 134.329 19.6H144.229C144.949 19.6 145.599 19.78 146.179 20.14C146.779 20.48 147.249 20.95 147.589 21.55C147.949 22.15 148.129 22.8 148.129 23.5V29.92H133.669V33.01C133.669 33.21 133.739 33.39 133.879 33.55C134.039 33.69 134.219 33.76 134.419 33.76H148.129V37H134.329ZM133.669 26.89H144.859V23.59C144.859 23.39 144.789 23.22 144.649 23.08C144.509 22.92 144.339 22.84 144.139 22.84H134.419C134.219 22.84 134.039 22.92 133.879 23.08C133.739 23.22 133.669 23.39 133.669 23.59V26.89ZM153.886 37C153.166 37 152.516 36.82 151.936 36.46C151.356 36.1 150.886 35.63 150.526 35.05C150.166 34.47 149.986 33.82 149.986 33.1V13.9H153.226V33.01C153.226 33.21 153.296 33.39 153.436 33.55C153.596 33.69 153.776 33.76 153.976 33.76H157.126V37H153.886ZM167.069 37V18.64H157.889V15.4H179.489V18.64H170.309V37H167.069ZM182.275 37C181.555 37 180.905 36.82 180.325 36.46C179.745 36.1 179.275 35.63 178.915 35.05C178.555 34.47 178.375 33.82 178.375 33.1V23.5C178.375 22.78 178.555 22.13 178.915 21.55C179.275 20.97 179.745 20.5 180.325 20.14C180.905 19.78 181.555 19.6 182.275 19.6H192.175C192.895 19.6 193.545 19.78 194.125 20.14C194.725 20.48 195.195 20.95 195.535 21.55C195.895 22.15 196.075 22.8 196.075 23.5V33.1C196.075 33.82 195.895 34.47 195.535 35.05C195.195 35.63 194.725 36.1 194.125 36.46C193.545 36.82 192.895 37 192.175 37H182.275ZM182.365 33.76H192.085C192.285 33.76 192.455 33.69 192.595 33.55C192.735 33.39 192.805 33.21 192.805 33.01V23.59C192.805 23.39 192.735 23.22 192.595 23.08C192.455 22.92 192.285 22.84 192.085 22.84H182.365C182.165 22.84 181.985 22.92 181.825 23.08C181.685 23.22 181.615 23.39 181.615 23.59V33.01C181.615 33.21 181.685 33.39 181.825 33.55C181.985 33.69 182.165 33.76 182.365 33.76Z" fill="white"/>
<path d="M198.696 37V15.4H202.566L210.936 25.36L219.276 15.4H223.176V37H219.906V19.75L210.936 30.43L201.936 19.75V37H198.696ZM229.591 37C228.871 37 228.211 36.82 227.611 36.46C227.031 36.1 226.561 35.63 226.201 35.05C225.861 34.47 225.691 33.82 225.691 33.1V26.68H240.121V23.59C240.121 23.39 240.051 23.22 239.911 23.08C239.771 22.92 239.601 22.84 239.401 22.84H225.691V19.6H239.491C240.211 19.6 240.861 19.78 241.441 20.14C242.041 20.48 242.511 20.95 242.851 21.55C243.211 22.15 243.391 22.8 243.391 23.5V37H229.591ZM229.681 33.76H240.121V29.71H228.931V33.01C228.931 33.21 229.001 33.39 229.141 33.55C229.301 33.69 229.481 33.76 229.681 33.76ZM245.54 37V23.5C245.54 22.78 245.72 22.13 246.08 21.55C246.44 20.97 246.91 20.5 247.49 20.14C248.09 19.78 248.74 19.6 249.44 19.6H259.16V22.84H249.53C249.33 22.84 249.15 22.92 248.99 23.08C248.85 23.22 248.78 23.39 248.78 23.59V37H245.54ZM264.424 37C263.704 37 263.054 36.82 262.474 36.46C261.894 36.1 261.424 35.63 261.064 35.05C260.704 34.47 260.524 33.82 260.524 33.1V32.65H263.764V33.01C263.764 33.21 263.834 33.39 263.974 33.55C264.134 33.69 264.314 33.76 264.514 33.76H274.234C274.434 33.76 274.604 33.69 274.744 33.55C274.884 33.39 274.954 33.21 274.954 33.01V30.67C274.954 30.47 274.884 30.3 274.744 30.16C274.604 30 274.434 29.92 274.234 29.92H264.424C263.704 29.92 263.054 29.75 262.474 29.41C261.894 29.05 261.424 28.58 261.064 28C260.704 27.4 260.524 26.74 260.524 26.02V23.5C260.524 22.78 260.704 22.13 261.064 21.55C261.424 20.97 261.894 20.5 262.474 20.14C263.054 19.78 263.704 19.6 264.424 19.6H274.324C275.044 19.6 275.694 19.78 276.274 20.14C276.874 20.5 277.344 20.97 277.684 21.55C278.044 22.13 278.224 22.78 278.224 23.5V23.95H274.954V23.59C274.954 23.39 274.884 23.22 274.744 23.08C274.604 22.92 274.434 22.84 274.234 22.84H264.514C264.314 22.84 264.134 22.92 263.974 23.08C263.834 23.22 263.764 23.39 263.764 23.59V25.93C263.764 26.13 263.834 26.31 263.974 26.47C264.134 26.61 264.314 26.68 264.514 26.68H274.324C275.044 26.68 275.694 26.86 276.274 27.22C276.874 27.56 277.344 28.03 277.684 28.63C278.044 29.21 278.224 29.86 278.224 30.58V33.1C278.224 33.82 278.044 34.47 277.684 35.05C277.344 35.63 276.874 36.1 276.274 36.46C275.694 36.82 275.044 37 274.324 37H264.424Z" fill="#D83B09"/>
</g>
<defs>
<clipPath id="clip0_307_52">
<rect width="275" height="40" fill="white" transform="translate(5 5)"/>
</clipPath>
</defs>
</svg>
